<svg id="visual" viewBox="0 0 900 600" width="900" height="600" xmlns="http://www.w3.org/2000/svg" xmlns:xlink="http://www.w3.org/1999/xlink" version="1.1"><rect x="0" y="0" width="900" height="600" fill="#000000"></rect><path d="M0 250L10.7 275.8C21.3 301.7 42.7 353.3 64.2 332C85.7 310.7 107.3 216.3 128.8 193.2C150.3 170 171.7 218 193 222.2C214.3 226.3 235.7 186.7 257 158.5C278.3 130.3 299.7 113.7 321.2 111C342.7 108.3 364.3 119.7 385.8 125.7C407.3 131.7 428.7 132.3 450 179.5C471.3 226.7 492.7 320.3 514.2 338C535.7 355.7 557.3 297.3 578.8 263.7C600.3 230 621.7 221 643 235.7C664.3 250.3 685.7 288.7 707 289C728.3 289.3 749.7 251.7 771.2 241.7C792.7 231.7 814.3 249.3 835.8 245.5C857.3 241.7 878.7 216.3 889.3 203.7L900 191L900 0L889.3 0C878.7 0 857.3 0 835.8 0C814.3 0 792.7 0 771.2 0C749.7 0 728.3 0 707 0C685.7 0 664.3 0 643 0C621.7 0 600.3 0 578.8 0C557.3 0 535.7 0 514.2 0C492.7 0 471.3 0 450 0C428.7 0 407.3 0 385.8 0C364.3 0 342.7 0 321.2 0C299.7 0 278.3 0 257 0C235.7 0 214.3 0 193 0C171.7 0 150.3 0 128.8 0C107.3 0 85.7 0 64.2 0C42.7 0 21.3 0 10.7 0L0 0Z" fill="#277b0c"></path><path d="M0 285L10.7 260C21.3 235 42.7 185 64.2 173.2C85.7 161.3 107.3 187.7 128.8 202.5C150.3 217.3 171.7 220.7 193 227C214.3 233.3 235.7 242.7 257 232.7C278.3 222.7 299.7 193.3 321.2 180.2C342.7 167 364.3 170 385.8 174.8C407.3 179.7 428.7 186.3 450 193C471.3 199.7 492.7 206.3 514.2 188.2C535.7 170 557.3 127 578.8 108.8C600.3 90.7 621.7 97.3 643 107.5C664.3 117.7 685.7 131.3 707 157.2C728.3 183 749.7 221 771.2 229.3C792.7 237.7 814.3 216.3 835.8 229.2C857.3 242 878.7 289 889.3 312.5L900 336L900 0L889.3 0C878.7 0 857.3 0 835.8 0C814.3 0 792.7 0 771.2 0C749.7 0 728.3 0 707 0C685.7 0 664.3 0 643 0C621.7 0 600.3 0 578.8 0C557.3 0 535.7 0 514.2 0C492.7 0 471.3 0 450 0C428.7 0 407.3 0 385.8 0C364.3 0 342.7 0 321.2 0C299.7 0 278.3 0 257 0C235.7 0 214.3 0 193 0C171.7 0 150.3 0 128.8 0C107.3 0 85.7 0 64.2 0C42.7 0 21.3 0 10.7 0L0 0Z" fill="#28890b"></path><path d="M0 155L10.7 181.5C21.3 208 42.7 261 64.2 287.3C85.7 313.7 107.3 313.3 128.8 289C150.3 264.7 171.7 216.3 193 191.2C214.3 166 235.7 164 257 189C278.3 214 299.7 266 321.2 277.7C342.7 289.3 364.3 260.7 385.8 226.3C407.3 192 428.7 152 450 133.2C471.3 114.3 492.7 116.7 514.2 137.8C535.7 159 557.3 199 578.8 203.8C600.3 208.7 621.7 178.3 643 182C664.3 185.7 685.7 223.3 707 230.8C728.3 238.3 749.7 215.7 771.2 188.8C792.7 162 814.3 131 835.8 140.8C857.3 150.7 878.7 201.3 889.3 226.7L900 252L900 0L889.3 0C878.7 0 857.3 0 835.8 0C814.3 0 792.7 0 771.2 0C749.7 0 728.3 0 707 0C685.7 0 664.3 0 643 0C621.7 0 600.3 0 578.8 0C557.3 0 535.7 0 514.2 0C492.7 0 471.3 0 450 0C428.7 0 407.3 0 385.8 0C364.3 0 342.7 0 321.2 0C299.7 0 278.3 0 257 0C235.7 0 214.3 0 193 0C171.7 0 150.3 0 128.8 0C107.3 0 85.7 0 64.2 0C42.7 0 21.3 0 10.7 0L0 0Z" fill="#29970b"></path><path d="M0 231L10.7 221.3C21.3 211.7 42.7 192.3 64.2 186.3C85.7 180.3 107.3 187.7 128.8 192C150.3 196.3 171.7 197.7 193 176.5C214.3 155.3 235.7 111.7 257 119.7C278.3 127.7 299.7 187.3 321.2 189.3C342.7 191.3 364.3 135.7 385.8 145.3C407.3 155 428.7 230 450 257.7C471.3 285.3 492.7 265.7 514.2 248.3C535.7 231 557.3 216 578.8 199.7C600.3 183.3 621.7 165.7 643 156.2C664.3 146.7 685.7 145.3 707 172.7C728.3 200 749.7 256 771.2 266C792.7 276 814.3 240 835.8 239.5C857.3 239 878.7 274 889.3 291.5L900 309L900 0L889.3 0C878.7 0 857.3 0 835.8 0C814.3 0 792.7 0 771.2 0C749.7 0 728.3 0 707 0C685.7 0 664.3 0 643 0C621.7 0 600.3 0 578.8 0C557.3 0 535.7 0 514.2 0C492.7 0 471.3 0 450 0C428.7 0 407.3 0 385.8 0C364.3 0 342.7 0 321.2 0C299.7 0 278.3 0 257 0C235.7 0 214.3 0 193 0C171.7 0 150.3 0 128.8 0C107.3 0 85.7 0 64.2 0C42.7 0 21.3 0 10.7 0L0 0Z" fill="#29a509"></path><path d="M0 148L10.7 137.2C21.3 126.3 42.7 104.7 64.2 98.8C85.7 93 107.3 103 128.8 121.3C150.3 139.7 171.7 166.3 193 186C214.3 205.7 235.7 218.3 257 232.2C278.3 246 299.7 261 321.2 251C342.7 241 364.3 206 385.8 190C407.3 174 428.7 177 450 164.3C471.3 151.7 492.7 123.3 514.2 130.8C535.7 138.3 557.3 181.7 578.8 180.3C600.3 179 621.7 133 643 110.8C664.3 88.7 685.7 90.3 707 120.5C728.3 150.7 749.7 209.3 771.2 209C792.7 208.7 814.3 149.3 835.8 143.7C857.3 138 878.7 186 889.3 210L900 234L900 0L889.3 0C878.7 0 857.3 0 835.8 0C814.3 0 792.7 0 771.2 0C749.7 0 728.3 0 707 0C685.7 0 664.3 0 643 0C621.7 0 600.3 0 578.8 0C557.3 0 535.7 0 514.2 0C492.7 0 471.3 0 450 0C428.7 0 407.3 0 385.8 0C364.3 0 342.7 0 321.2 0C299.7 0 278.3 0 257 0C235.7 0 214.3 0 193 0C171.7 0 150.3 0 128.8 0C107.3 0 85.7 0 64.2 0C42.7 0 21.3 0 10.7 0L0 0Z" fill="#29b408"></path><path d="M0 203L10.7 186.3C21.3 169.7 42.7 136.3 64.2 138C85.7 139.7 107.3 176.3 128.8 197.2C150.3 218 171.7 223 193 206.5C214.3 190 235.7 152 257 148C278.3 144 299.7 174 321.2 190.8C342.7 207.7 364.3 211.3 385.8 200.2C407.3 189 428.7 163 450 141.3C471.3 119.7 492.7 102.3 514.2 117.8C535.7 133.3 557.3 181.7 578.8 178.8C600.3 176 621.7 122 643 112.3C664.3 102.7 685.7 137.3 707 151.3C728.3 165.3 749.7 158.7 771.2 154C792.7 149.3 814.3 146.7 835.8 137C857.3 127.3 878.7 110.7 889.3 102.3L900 94L900 0L889.3 0C878.7 0 857.3 0 835.8 0C814.3 0 792.7 0 771.2 0C749.7 0 728.3 0 707 0C685.7 0 664.3 0 643 0C621.7 0 600.3 0 578.8 0C557.3 0 535.7 0 514.2 0C492.7 0 471.3 0 450 0C428.7 0 407.3 0 385.8 0C364.3 0 342.7 0 321.2 0C299.7 0 278.3 0 257 0C235.7 0 214.3 0 193 0C171.7 0 150.3 0 128.8 0C107.3 0 85.7 0 64.2 0C42.7 0 21.3 0 10.7 0L0 0Z" fill="#27c206"></path><path d="M0 139L10.7 126.2C21.3 113.3 42.7 87.7 64.2 85.8C85.7 84 107.3 106 128.8 119.5C150.3 133 171.7 138 193 133C214.3 128 235.7 113 257 118C278.3 123 299.7 148 321.2 158.5C342.7 169 364.3 165 385.8 160.5C407.3 156 428.7 151 450 136C471.3 121 492.7 96 514.2 88.2C535.7 80.3 557.3 89.7 578.8 107.8C600.3 126 621.7 153 643 149.5C664.3 146 685.7 112 707 107.3C728.3 102.7 749.7 127.3 771.2 145.2C792.7 163 814.3 174 835.8 170.5C857.3 167 878.7 149 889.3 140L900 131L900 0L889.3 0C878.7 0 857.3 0 835.8 0C814.3 0 792.7 0 771.2 0C749.7 0 728.3 0 707 0C685.7 0 664.3 0 643 0C621.7 0 600.3 0 578.8 0C557.3 0 535.7 0 514.2 0C492.7 0 471.3 0 450 0C428.7 0 407.3 0 385.8 0C364.3 0 342.7 0 321.2 0C299.7 0 278.3 0 257 0C235.7 0 214.3 0 193 0C171.7 0 150.3 0 128.8 0C107.3 0 85.7 0 64.2 0C42.7 0 21.3 0 10.7 0L0 0Z" fill="#24d105"></path><path d="M0 143L10.7 124C21.3 105 42.7 67 64.2 58.5C85.7 50 107.3 71 128.8 75.3C150.3 79.7 171.7 67.3 193 64.8C214.3 62.3 235.7 69.7 257 66.2C278.3 62.7 299.7 48.3 321.2 57C342.7 65.7 364.3 97.3 385.8 104.5C407.3 111.7 428.7 94.3 450 88.7C471.3 83 492.7 89 514.2 88C535.7 87 557.3 79 578.8 67.2C600.3 55.3 621.7 39.7 643 38.5C664.3 37.3 685.7 50.7 707 54.3C728.3 58 749.7 52 771.2 60.8C792.7 69.7 814.3 93.3 835.8 92C857.3 90.7 878.7 64.3 889.3 51.2L900 38L900 0L889.3 0C878.7 0 857.3 0 835.8 0C814.3 0 792.7 0 771.2 0C749.7 0 728.3 0 707 0C685.7 0 664.3 0 643 0C621.7 0 600.3 0 578.8 0C557.3 0 535.7 0 514.2 0C492.7 0 471.3 0 450 0C428.7 0 407.3 0 385.8 0C364.3 0 342.7 0 321.2 0C299.7 0 278.3 0 257 0C235.7 0 214.3 0 193 0C171.7 0 150.3 0 128.8 0C107.3 0 85.7 0 64.2 0C42.7 0 21.3 0 10.7 0L0 0Z" fill="#1ee003"></path><path d="M0 65L10.7 62.7C21.3 60.3 42.7 55.7 64.2 53.8C85.7 52 107.3 53 128.8 50.7C150.3 48.3 171.7 42.7 193 42.2C214.3 41.7 235.7 46.3 257 57C278.3 67.7 299.7 84.3 321.2 83.2C342.7 82 364.3 63 385.8 51.3C407.3 39.7 428.7 35.3 450 39.3C471.3 43.3 492.7 55.7 514.2 55.2C535.7 54.7 557.3 41.3 578.8 36.7C600.3 32 621.7 36 643 38.2C664.3 40.3 685.7 40.7 707 43C728.3 45.3 749.7 49.7 771.2 46.8C792.7 44 814.3 34 835.8 33.2C857.3 32.3 878.7 40.7 889.3 44.8L900 49L900 0L889.3 0C878.7 0 857.3 0 835.8 0C814.3 0 792.7 0 771.2 0C749.7 0 728.3 0 707 0C685.7 0 664.3 0 643 0C621.7 0 600.3 0 578.8 0C557.3 0 535.7 0 514.2 0C492.7 0 471.3 0 450 0C428.7 0 407.3 0 385.8 0C364.3 0 342.7 0 321.2 0C299.7 0 278.3 0 257 0C235.7 0 214.3 0 193 0C171.7 0 150.3 0 128.8 0C107.3 0 85.7 0 64.2 0C42.7 0 21.3 0 10.7 0L0 0Z" fill="#15f001"></path><path d="M0 17L10.7 16.5C21.3 16 42.7 15 64.2 19C85.7 23 107.3 32 128.8 33.7C150.3 35.3 171.7 29.7 193 27.8C214.3 26 235.7 28 257 34.7C278.3 41.3 299.7 52.7 321.2 54.2C342.7 55.7 364.3 47.3 385.8 45.8C407.3 44.3 428.7 49.7 450 54.2C471.3 58.7 492.7 62.3 514.2 64.8C535.7 67.3 557.3 68.7 578.8 61.3C600.3 54 621.7 38 643 31.2C664.3 24.3 685.7 26.7 707 36C728.3 45.3 749.7 61.7 771.2 61.3C792.7 61 814.3 44 835.8 36.7C857.3 29.3 878.7 31.7 889.3 32.8L900 34L900 0L889.3 0C878.7 0 857.3 0 835.8 0C814.3 0 792.7 0 771.2 0C749.7 0 728.3 0 707 0C685.7 0 664.3 0 643 0C621.7 0 600.3 0 578.8 0C557.3 0 535.7 0 514.2 0C492.7 0 471.3 0 450 0C428.7 0 407.3 0 385.8 0C364.3 0 342.7 0 321.2 0C299.7 0 278.3 0 257 0C235.7 0 214.3 0 193 0C171.7 0 150.3 0 128.8 0C107.3 0 85.7 0 64.2 0C42.7 0 21.3 0 10.7 0L0 0Z" fill="#00ff00"></path></svg>